<svg width="77" height="77" viewBox="0 0 77 77" fill="none" xmlns="http://www.w3.org/2000/svg">
<rect width="77" height="77" rx="10" fill="#FFEED0"/>
<g clip-path="url(#clip0)">
<path d="M39.8665 32.6489L38.9813 32.2992C38.951 31.9704 38.8908 31.6466 38.8005 31.3306L39.5013 30.6881C39.7988 30.4141 39.8562 29.9669 39.6339 29.6286L38.9916 28.6426C38.8708 28.4572 38.6868 28.3298 38.4708 28.2844C38.3013 28.2486 38.1293 28.2664 37.9719 28.3361L37.0982 28.7166C36.8359 28.4986 36.5545 28.3049 36.255 28.1418L36.2936 27.2026C36.3105 26.7981 36.0345 26.4429 35.6385 26.3592L34.4882 26.1164C34.0919 26.0327 33.6959 26.2458 33.5479 26.6226L33.1933 27.5181C32.867 27.5492 32.5428 27.6118 32.2265 27.7049L31.5893 27.0052C31.4733 26.8781 31.3205 26.7915 31.151 26.7558C30.935 26.7101 30.7125 26.7515 30.5299 26.8729L29.5413 27.5144C29.2036 27.7341 29.0725 28.1658 29.2342 28.5369L29.6185 29.4201C29.4076 29.6752 29.2245 29.9475 29.0665 30.2366L28.1273 30.1981C27.7228 30.1812 27.3676 30.4572 27.2839 30.8532L27.041 32.0035C26.9573 32.3995 27.1705 32.7955 27.5476 32.9438L28.443 33.2984C28.4742 33.6244 28.5368 33.9489 28.6299 34.2652L27.9336 34.9001C27.6359 35.1741 27.5788 35.6212 27.801 35.9595L28.4433 36.9455C28.5639 37.1309 28.7485 37.2584 28.9642 37.3038C29.1333 37.3395 29.3056 37.3218 29.463 37.2524L30.3462 36.8681C30.5916 37.0709 30.8562 37.2498 31.1345 37.4055L31.0936 38.3558C31.0768 38.7604 31.3528 39.1155 31.7488 39.1992L32.9016 39.4426C33.2979 39.5264 33.6939 39.3132 33.8419 38.9364L34.1913 38.0515C34.5205 38.0209 34.8442 37.9609 35.1599 37.8706L35.8025 38.5715C35.9185 38.6986 36.0713 38.7852 36.2405 38.8212C36.4562 38.8669 36.6765 38.8249 36.8616 38.7041L37.8476 38.0618C38.185 37.8421 38.3162 37.4104 38.1548 37.0395L37.7742 36.1658C37.985 35.9106 38.1736 35.6395 38.331 35.3532L39.2813 35.3941C39.6859 35.4109 40.041 35.1349 40.1248 34.7389L40.3676 33.5889C40.4565 33.1929 40.2433 32.7969 39.8665 32.6489ZM33.1293 35.5169C31.6188 35.1978 30.6528 33.7146 30.9719 32.2041C31.291 30.6935 32.7742 29.7275 34.2848 30.0466C35.7953 30.3658 36.7613 31.8489 36.4422 33.3595C36.123 34.8701 34.6399 35.8361 33.1293 35.5169Z" fill="#FFC460"/>
<path d="M40.9017 44.9991L40.134 44.8688C40.054 44.6105 39.9512 44.3617 39.8254 44.124L40.278 43.4911C40.4697 43.2214 40.4403 42.8537 40.2049 42.6205L39.524 41.9397C39.396 41.8117 39.2269 41.7408 39.0463 41.7408C38.9046 41.7408 38.77 41.7843 38.6554 41.8665L38.0203 42.3188C37.7734 42.1885 37.5154 42.0811 37.248 42.0011L37.12 41.2425C37.0652 40.9157 36.784 40.678 36.4529 40.678H35.4909C35.1594 40.678 34.8786 40.9157 34.8237 41.2425L34.6914 42.0194C34.4354 42.0994 34.1863 42.2045 33.9489 42.3325L33.3206 41.88C33.2063 41.7977 33.0692 41.7543 32.9274 41.7543C32.7469 41.7543 32.5757 41.8251 32.45 41.9531L31.7669 42.634C31.5337 42.8671 31.5017 43.2348 31.6937 43.5045L32.1506 44.1465C32.0249 44.3865 31.9243 44.6354 31.8466 44.8937L31.088 45.0214C30.7612 45.0763 30.5234 45.3574 30.5234 45.6888V46.6508C30.5234 46.982 30.7612 47.2631 31.088 47.318L31.8649 47.4506C31.9449 47.7063 32.05 47.9554 32.178 48.1931L31.7277 48.8191C31.5357 49.0888 31.5654 49.4565 31.8009 49.6897L32.4817 50.3705C32.6097 50.4985 32.7789 50.5694 32.9594 50.5694C33.1009 50.5694 33.236 50.526 33.3503 50.4437L33.9923 49.9868C34.2232 50.108 34.4652 50.2063 34.7143 50.284L34.8423 51.0517C34.8972 51.3785 35.1783 51.6163 35.5094 51.6163H36.4737C36.8052 51.6163 37.0863 51.3785 37.1409 51.0517L37.2712 50.284C37.5294 50.204 37.7783 50.1011 38.016 49.9754L38.6489 50.4277C38.7632 50.51 38.9003 50.5534 39.042 50.5534C39.2226 50.5534 39.3917 50.4825 39.5197 50.3545L40.2006 49.6737C40.4337 49.4405 40.4654 49.0728 40.2737 48.8031L39.8214 48.168C39.9472 47.9283 40.0523 47.6791 40.1297 47.4231L40.8974 47.2951C41.2243 47.2403 41.462 46.9591 41.462 46.628V45.666C41.4663 45.3348 41.2286 45.054 40.9017 44.9991ZM35.9926 48.4348C34.7292 48.4348 33.7052 47.4105 33.7052 46.1474C33.7052 44.884 34.7294 43.8597 35.9926 43.8597C37.2557 43.8597 38.2803 44.884 38.2803 46.1474C38.2803 47.4105 37.256 48.4348 35.9926 48.4348Z" fill="#FFC460"/>
<path d="M50.4056 39.496L49.637 39.3714C49.555 39.1137 49.4504 38.8657 49.323 38.6288L49.7707 37.9926C49.9604 37.7214 49.9282 37.354 49.6913 37.1226L49.0056 36.4466C48.8767 36.3194 48.707 36.25 48.5264 36.2511C48.3847 36.2523 48.2504 36.2966 48.1367 36.3797L47.505 36.8366C47.2573 36.708 46.9984 36.6026 46.7304 36.5246L46.597 35.7671C46.5399 35.4406 46.257 35.2051 45.9259 35.2074L44.9639 35.2143C44.6324 35.2166 44.3533 35.4563 44.3007 35.7834L44.1739 36.5611C43.9184 36.6428 43.6702 36.7497 43.4336 36.8794L42.8019 36.4314C42.687 36.35 42.5496 36.3077 42.4079 36.3086C42.2273 36.31 42.0564 36.382 41.9319 36.5108L41.2536 37.1966C41.0222 37.4314 40.9927 37.7994 41.1867 38.0677L41.6484 38.7063C41.5244 38.9471 41.4259 39.1968 41.3499 39.4557L40.5924 39.5891C40.2662 39.6463 40.0304 39.9291 40.0327 40.2606L40.0396 41.2226C40.0419 41.5537 40.2816 41.8331 40.609 41.8857L41.3867 42.0126C41.4684 42.2677 41.5753 42.5163 41.705 42.7528L41.2593 43.382C41.0693 43.6531 41.1019 44.0206 41.3387 44.252L42.0244 44.928C42.1533 45.0551 42.323 45.1246 42.5036 45.1234C42.645 45.1223 42.7796 45.078 42.8933 44.9951L43.5319 44.5334C43.7636 44.6528 44.0064 44.7494 44.2562 44.8251L44.3896 45.592C44.4467 45.9183 44.7296 46.154 45.0607 46.1517L46.025 46.1446C46.3564 46.1423 46.6356 45.9026 46.6882 45.5754L46.8127 44.8068C47.0704 44.7251 47.3187 44.6203 47.5553 44.4928L48.1913 44.9406C48.3062 45.022 48.4436 45.0646 48.5853 45.0634C48.7659 45.062 48.9344 44.99 49.0616 44.8611L49.7376 44.1754C49.969 43.9406 49.9982 43.5726 49.8044 43.3043L49.3476 42.6723C49.4716 42.4314 49.5747 42.1817 49.6507 41.9251L50.4176 41.7917C50.7439 41.7346 50.9796 41.4517 50.9773 41.1203L50.9704 40.1583C50.9725 39.8277 50.7327 39.5483 50.4056 39.496ZM45.5216 42.9671C44.2582 42.9763 43.2267 41.9597 43.2176 40.6963C43.2084 39.4328 44.225 38.4014 45.4884 38.392C46.7519 38.3828 47.7833 39.3994 47.7927 40.6628C47.8016 41.9263 46.785 42.958 45.5216 42.9671Z" fill="#FFC460"/>
</g>
<defs>
<clipPath id="clip0">
<rect width="24" height="25.7143" fill="white" transform="translate(27 26)"/>
</clipPath>
</defs>
</svg>
