<svg width="77" height="77" viewBox="0 0 77 77" fill="none" xmlns="http://www.w3.org/2000/svg">
<rect width="77" height="77" rx="10" fill="#D4ECFB"/>
<path d="M37.6142 40.1172L36.2486 38.7516L34.5518 40.4484L37.9862 43.8828L43.5986 35.466L41.6018 34.134L37.6142 40.1172Z" fill="#6FBCF0"/>
<path d="M49.8 28.8C48.3564 28.8 45 28.4496 45 25.2V24H33V25.2C33 28.4496 29.6436 28.8 28.2 28.8H27V42C27 47.2572 37.3224 52.1496 38.4996 52.6908L39 52.9212L39.5004 52.692C40.6776 52.1496 51 47.2572 51 42V28.8H49.8ZM48.6 42C48.6 44.6976 42.9108 48.3888 39 50.274C35.088 48.3912 29.4 44.7012 29.4 42V31.1376C32.6184 30.792 34.7928 29.0376 35.2908 26.4H42.7104C43.2072 29.0376 45.3816 30.792 48.6 31.1376V42Z" fill="#6FBCF0"/>
</svg>
