<svg width="77" height="77" viewBox="0 0 77 77" fill="none" xmlns="http://www.w3.org/2000/svg">
<rect width="77" height="77" rx="10" fill="#FBEFEF"/>
<path d="M50.2717 39.0608L49.0933 35.3996L50.2717 31.7384L47.1661 29.468L45.9661 25.814L42.1201 25.7984L39.0001 23.5532L35.8801 25.7984L32.0341 25.8152L30.8341 29.4692L27.7285 31.7396L28.9069 35.4008L27.7285 39.062L30.8341 41.3336L31.6597 43.8476L29.2501 49.1528L33.1045 49.7324L35.6545 53.2448L39.0001 49.8968L42.4273 53.3252L44.6293 49.7312L48.8461 49.16L46.2469 44.1248L47.1649 41.33L50.2717 39.0608ZM30.5449 38.1464L31.4281 35.3996L30.5449 32.6528L32.8729 30.95L33.7741 28.208L36.6577 28.196L39.0001 26.5112L41.3413 28.196L44.2249 28.208L45.1261 30.95L47.4541 32.6528L46.5709 35.3996L47.4541 38.1464L45.1261 39.8492L44.2249 42.5912L41.3413 42.6032L39.0001 44.288L36.6589 42.6032L33.7753 42.5912L32.8741 39.8504L30.5449 38.1464ZM34.4569 47.5064L32.7505 47.2496L33.7765 44.9912L35.8813 45.0008L38.5693 46.9352L35.9461 49.5584L34.4569 47.5064ZM43.1797 47.5052L41.9725 49.4756L39.4321 46.9364L42.1201 45.002L43.9945 44.9936L45.1537 47.24L43.1797 47.5052Z" fill="#EDAEAD"/>
<path d="M39 41.3997C42.3084 41.3997 45 38.7081 45 35.3997C45 32.0913 42.3084 29.3997 39 29.3997C35.6916 29.3997 33 32.0913 33 35.3997C33 38.7081 35.6916 41.3997 39 41.3997ZM39 31.7997C40.9848 31.7997 42.6 33.4149 42.6 35.3997C42.6 37.3845 40.9848 38.9997 39 38.9997C37.0152 38.9997 35.4 37.3845 35.4 35.3997C35.4 33.4149 37.0152 31.7997 39 31.7997Z" fill="#EDAEAD"/>
</svg>
