<svg width="77" height="77" viewBox="0 0 77 77" fill="none" xmlns="http://www.w3.org/2000/svg">
<rect width="77" height="77" rx="10" fill="#E5F1F3"/>
<g clip-path="url(#clip0)">
<path d="M39 30.5943C38.5475 30.5943 38.0977 30.6645 37.6666 30.8023V27H40.3333V30.8023C39.9023 30.6645 39.4525 30.5943 39 30.5943ZM37.6666 39.1923V50.9999H40.3333V39.1923C39.466 39.4695 38.5339 39.4695 37.6666 39.1923ZM39 31.6667C38.3407 31.6667 37.6962 31.8622 37.1481 32.2284C36.5999 32.5947 36.1727 33.1153 35.9204 33.7244C35.6681 34.3335 35.6021 35.0037 35.7307 35.6503C35.8593 36.2969 36.1768 36.8908 36.643 37.357C37.1091 37.8232 37.7031 38.1406 38.3497 38.2693C38.9963 38.3979 39.6665 38.3319 40.2756 38.0796C40.8847 37.8273 41.4053 37.4 41.7715 36.8519C42.1378 36.3037 42.3333 35.6592 42.3333 35C42.3333 34.1159 41.9821 33.2681 41.357 32.643C40.7319 32.0178 39.884 31.6667 39 31.6667ZM46.3333 38.8077C47.2005 38.5304 48.1327 38.5304 48.9999 38.8077V27H46.3333V38.8077ZM46.3333 47.1976V50.9999H48.9999V47.1976C48.1327 47.4749 47.2006 47.4749 46.3333 47.1976ZM47.6666 39.6666C47.0073 39.6666 46.3629 39.8621 45.8147 40.2284C45.2666 40.5947 44.8393 41.1153 44.587 41.7243C44.3347 42.3334 44.2687 43.0037 44.3973 43.6503C44.526 44.2969 44.8434 44.8908 45.3096 45.357C45.7758 45.8231 46.3697 46.1406 47.0163 46.2692C47.6629 46.3979 48.3331 46.3318 48.9422 46.0795C49.5513 45.8273 50.0719 45.4 50.4382 44.8519C50.8044 44.3037 50.9999 43.6592 50.9999 43C50.9999 42.1159 50.6488 41.2681 50.0236 40.6429C49.3985 40.0178 48.5507 39.6666 47.6666 39.6666ZM31.6667 38.8077V27H29V38.8077C29.8673 38.5304 30.7994 38.5304 31.6667 38.8077ZM29 47.1976V50.9999H31.6667V47.1976C30.7994 47.4749 29.8673 47.4749 29 47.1976ZM30.3333 39.6666C29.6741 39.6666 29.0296 39.8621 28.4814 40.2284C27.9333 40.5947 27.506 41.1153 27.2537 41.7243C27.0014 42.3334 26.9354 43.0037 27.0641 43.6503C27.1927 44.2969 27.5101 44.8908 27.9763 45.357C28.4425 45.8231 29.0364 46.1406 29.683 46.2692C30.3296 46.3979 30.9998 46.3318 31.6089 46.0795C32.218 45.8273 32.7386 45.4 33.1049 44.8519C33.4712 44.3037 33.6667 43.6592 33.6667 43C33.6667 42.1159 33.3155 41.2681 32.6903 40.6429C32.0652 40.0178 31.2174 39.6666 30.3333 39.6666Z" fill="#63C6D5"/>
</g>
<defs>
<clipPath id="clip0">
<rect width="24" height="23.9999" fill="white" transform="translate(27 27)"/>
</clipPath>
</defs>
</svg>
