<svg width="64" height="48" viewBox="0 0 64 48" fill="none" xmlns="http://www.w3.org/2000/svg">
<path d="M25.4003 32.8533L42.7003 23.3067L25.4003 13.68V32.8533Z" fill="white"/>
<path d="M63.3252 10.3467C63.3252 10.3467 62.7005 5.65333 60.7762 3.57333C58.3522 0.853333 55.6283 0.853333 54.3537 0.693333C45.4325 0 32.0125 0 32.0125 0H31.9875C31.9875 0 18.5677 0 9.59625 0.693333C8.34675 0.853333 5.62275 0.853333 3.17375 3.57333C1.2745 5.65333 0.64975 10.3467 0.64975 10.3467C0.64975 10.3467 0 15.8933 0 21.4133V26.5867C0 32.1067 0.64975 37.6267 0.64975 37.6267C0.64975 37.6267 1.2745 42.32 3.19875 44.4C5.62275 47.12 8.8215 47.04 10.246 47.3067C15.369 47.84 31.9875 48 31.9875 48C31.9875 48 45.4323 47.9733 54.3787 47.28C55.6283 47.12 58.3522 47.12 60.8013 44.4C62.7255 42.32 63.3503 37.6267 63.3503 37.6267C63.3503 37.6267 64 32.1067 64 26.5867V21.4133C63.975 15.8933 63.3252 10.3467 63.3252 10.3467ZM25.3902 32.8533V13.68L42.6833 23.3067L25.39 32.8533H25.3902Z" fill="#FF0000"/>
</svg>
